# Blender v2.82 (sub 7) OBJ File: 'cs.blend'
# www.blender.org
o Cube
v 0.093398 0.165705 1.888441
v 0.082797 0.226017 -0.110621
v 0.089474 -0.034166 1.882431
v 0.078872 0.026146 -0.116630
v -0.106560 0.169596 1.889619
v -0.117162 0.229907 -0.109443
v -0.110484 -0.030276 1.883609
v -0.121086 0.030036 -0.115453
v 0.118156 2.031271 -0.070875
v 0.078986 0.032196 -0.117374
v 0.119243 2.026598 0.129067
v 0.080073 0.027524 0.082568
v -0.081803 2.035161 -0.069698
v -0.120973 0.036087 -0.116196
v -0.080716 2.030489 0.130245
v -0.119886 0.031415 0.083746
v 2.772899 0.167148 0.090644
v 4.772377 0.128622 0.066280
v 2.768974 -0.032723 0.084635
v 4.768453 -0.071249 0.060271
v 2.770580 0.173203 -0.109251
v 4.770058 0.134678 -0.133614
v 2.766656 -0.026668 -0.115260
v 4.766135 -0.065193 -0.139623
v 0.179787 5.116517 0.200939
v -0.020172 5.120407 0.202117
v 0.178700 5.121189 0.000996
v -0.021258 5.125079 0.002174
v -0.113528 0.022816 0.119759
v -0.115846 0.028872 -0.080136
v -0.109604 0.222687 0.125768
v -0.111922 0.228743 -0.074126
v 0.105264 -0.123991 4.859701
v -0.094694 -0.120100 4.860878
v 0.109188 0.075881 4.865710
v -0.090770 0.079772 4.866887
vt 0.580083 0.714591
vt 0.600704 0.699157
vt 0.580083 0.699157
vt 0.594284 0.699032
vt 0.573664 0.683598
vt 0.573664 0.699032
vt 0.579959 0.714591
vt 0.559339 0.699157
vt 0.559339 0.714591
vt 0.552919 0.699032
vt 0.573540 0.683598
vt 0.552919 0.683598
vt 0.580083 0.683473
vt 0.600704 0.668039
vt 0.580083 0.668039
vt 0.538594 0.714591
vt 0.559214 0.699157
vt 0.538594 0.699157
vt 0.051411 0.553744
vt 0.050724 0.564359
vt 0.051411 0.564359
vt 0.051411 0.546881
vt 0.050724 0.553748
vt 0.050724 0.546881
vt 0.043078 0.554910
vt 0.049941 0.554837
vt 0.043073 0.554841
vt 0.050724 0.554841
vt 0.051411 0.554910
vt 0.050724 0.554910
vt 0.049941 0.554837
vt 0.043078 0.554910
vt 0.043073 0.554841
vt 0.050724 0.553744
vt 0.051411 0.546876
vt 0.050724 0.546876
vt 0.574202 0.075675
vt 0.585341 0.075675
vt 0.585341 0.075675
vt 0.585341 0.035343
vt 0.540517 0.039744
vt 0.585341 0.039744
vt 0.574202 0.039834
vt 0.585341 0.039834
vt 0.551745 0.062291
vt 0.562884 0.066692
vt 0.562884 0.062291
vt 0.562974 0.075675
vt 0.574112 0.039834
vt 0.562974 0.039834
vt 0.540517 0.030851
vt 0.585341 0.035253
vt 0.585341 0.030851
vt 0.050724 0.554830
vt 0.051411 0.554898
vt 0.051411 0.554830
vt 0.051411 0.553748
vt 0.050724 0.564364
vt 0.049946 0.554905
vt 0.060557 0.554830
vt 0.049946 0.554905
vt 0.060557 0.554830
vt 0.060561 0.554898
vt 0.562884 0.075675
vt 0.557360 0.066782
vt 0.557360 0.075675
vt 0.574112 0.075675
vt 0.562974 0.075675
vt 0.574112 0.075675
vt 0.540517 0.035253
vt 0.540517 0.030851
vt 0.540517 0.035253
vt 0.540517 0.035343
vt 0.540517 0.039744
vt 0.573540 0.683473
vt 0.552919 0.668039
vt 0.552919 0.683473
vt 0.559214 0.699032
vt 0.538594 0.683598
vt 0.538594 0.699032
vt 0.559214 0.683473
vt 0.538594 0.668039
vt 0.538594 0.683473
vt 0.573664 0.667915
vt 0.594284 0.652481
vt 0.573664 0.652481
vt 0.600704 0.714591
vt 0.594284 0.683598
vt 0.579959 0.699157
vt 0.573540 0.699032
vt 0.600704 0.683473
vt 0.559214 0.714591
vt 0.051411 0.554841
vt 0.574202 0.075675
vt 0.551745 0.066692
vt 0.050724 0.554898
vt 0.051411 0.564364
vt 0.060561 0.554898
vt 0.562884 0.066782
vt 0.540517 0.035343
vt 0.573540 0.668039
vt 0.559214 0.683598
vt 0.559214 0.668039
vt 0.594284 0.667915
vn -0.9998 0.0195 0.0059
vn -0.0196 -0.9994 -0.0300
vn -0.0053 0.0302 -0.9995
vn 0.9998 -0.0195 -0.0059
vn 0.0196 0.9994 0.0300
vn -0.0054 0.0234 -0.9997
vn 0.0054 -0.0234 0.9997
vn -0.0196 -0.9995 -0.0232
vn -0.0116 0.0303 -0.9995
vn 0.9997 -0.0193 -0.0122
vn 0.0116 -0.0303 0.9995
vn 0.0196 0.9995 0.0233
vn -0.9997 0.0193 0.0122
vn 0.0053 -0.0302 0.9995
s off
f 5/1/1 34/2/1 36/3/1
f 3/4/2 8/5/2 4/6/2
f 7/7/1 6/8/1 8/9/1
f 6/10/3 4/11/3 8/12/3
f 2/13/4 3/14/4 4/15/4
f 6/16/5 1/17/5 2/18/5
f 9/19/6 28/20/6 27/21/6
f 12/22/7 15/23/7 16/24/7
f 16/25/1 13/26/1 14/27/1
f 14/28/8 12/29/8 16/30/8
f 9/31/4 12/32/4 10/33/4
f 13/34/6 10/35/6 14/36/6
f 23/37/9 32/38/9 21/39/9
f 20/40/2 23/41/2 24/42/2
f 24/43/9 21/39/9 22/44/9
f 22/45/10 20/46/10 24/47/10
f 17/48/11 20/49/11 18/50/11
f 21/51/5 18/52/5 22/53/5
f 28/54/12 25/55/12 27/56/12
f 11/57/7 26/58/7 15/23/7
f 15/59/1 28/60/1 13/26/1
f 11/61/4 27/62/4 25/63/4
f 32/64/13 29/65/13 31/66/13
f 19/67/11 31/68/11 29/69/11
f 17/70/5 32/71/5 31/72/5
f 19/73/2 30/74/2 23/41/2
f 36/75/14 33/76/14 35/77/14
f 1/78/4 33/79/4 3/80/4
f 5/81/5 35/82/5 1/83/5
f 7/84/2 33/85/2 34/86/2
f 5/1/1 7/87/1 34/2/1
f 3/4/2 7/88/2 8/5/2
f 7/7/1 5/89/1 6/8/1
f 6/10/3 2/90/3 4/11/3
f 2/13/4 1/91/4 3/14/4
f 6/16/5 5/92/5 1/17/5
f 9/19/6 13/34/6 28/20/6
f 12/22/7 11/57/7 15/23/7
f 16/25/1 15/59/1 13/26/1
f 14/28/8 10/93/8 12/29/8
f 9/31/4 11/61/4 12/32/4
f 13/34/6 9/19/6 10/35/6
f 23/37/9 30/94/9 32/38/9
f 20/40/2 19/73/2 23/41/2
f 24/43/9 23/37/9 21/39/9
f 22/45/10 18/95/10 20/46/10
f 17/48/11 19/67/11 20/49/11
f 21/51/5 17/70/5 18/52/5
f 28/54/12 26/96/12 25/55/12
f 11/57/7 25/97/7 26/58/7
f 15/59/1 26/98/1 28/60/1
f 11/61/4 9/31/4 27/62/4
f 32/64/13 30/99/13 29/65/13
f 19/67/11 17/48/11 31/68/11
f 17/70/5 21/51/5 32/71/5
f 19/73/2 29/100/2 30/74/2
f 36/75/14 34/101/14 33/76/14
f 1/78/4 35/102/4 33/79/4
f 5/81/5 36/103/5 35/82/5
f 7/84/2 3/104/2 33/85/2
