# Blender v2.82 (sub 7) OBJ File: ''
# www.blender.org
o Cube
v 0.142883 5.120531 -0.147363
v 0.142883 0.024242 -0.147363
v 0.142883 5.120531 0.147363
v 0.142883 0.024242 0.147363
v -0.142883 5.120531 -0.147363
v -0.142883 0.024242 -0.147363
v -0.142883 5.120531 0.147363
v -0.142883 0.024242 0.147363
v -0.172410 5.082803 2.557652
v -0.172410 5.377280 2.557652
v -0.172410 5.082803 -0.147811
v -0.172410 5.377280 -0.147811
v 0.153367 5.082803 2.557652
v 0.153367 5.377280 2.557652
v 0.153367 5.082803 -0.147811
v 0.153367 5.377280 -0.147811
v -0.000759 4.906585 2.972503
v -0.083478 4.906585 2.960100
v -0.163018 4.906585 2.923368
v -0.236322 4.906585 2.863718
v -0.300574 4.906585 2.783444
v -0.353304 4.906585 2.685629
v -0.392487 4.906585 2.574033
v -0.416615 4.906585 2.452944
v -0.424762 4.906585 2.327016
v -0.416615 4.906585 2.201087
v -0.392487 4.906585 2.079998
v -0.353304 4.906585 1.968402
v -0.300574 4.906585 1.870587
v -0.236322 4.906585 1.790312
v -0.163018 4.906585 1.730663
v -0.083478 4.906585 1.693931
v -0.000759 4.906585 1.681528
v 0.081960 4.906585 1.693931
v 0.161500 4.906585 1.730663
v 0.234804 4.906585 1.790312
v 0.299056 4.906585 1.870587
v 0.351786 4.906585 1.968402
v 0.390968 4.906585 2.079998
v -0.000759 5.352423 2.327015
v 0.415096 4.906585 2.201087
v 0.423243 4.906585 2.327016
v 0.415096 4.906585 2.452944
v 0.390968 4.906585 2.574033
v 0.351786 4.906585 2.685630
v 0.299056 4.906585 2.783444
v 0.234804 4.906585 2.863719
v 0.161499 4.906585 2.923368
v 0.081959 4.906585 2.960100
v -0.143128 4.349173 2.447720
v -0.143128 4.578866 2.671663
v -0.380462 4.578866 2.447720
v -0.143128 4.890325 2.671663
v -0.143128 5.120018 2.447720
v -0.380462 4.890325 2.447720
v -0.143128 4.349173 2.144056
v -0.380462 4.578866 2.144056
v -0.143128 4.578866 1.920113
v -0.143128 5.120018 2.144056
v -0.143128 4.890325 1.920113
v -0.380462 4.890325 2.144056
v 0.178692 4.349173 2.447720
v 0.416026 4.578866 2.447720
v 0.178692 4.578866 2.671663
v 0.178692 5.120018 2.447720
v 0.178692 4.890325 2.671663
v 0.416026 4.890325 2.447720
v 0.178692 4.349173 2.144056
v 0.178692 4.578866 1.920113
v 0.416026 4.578866 2.144056
v 0.178692 5.120018 2.144056
v 0.416026 4.890325 2.144056
v 0.178692 4.890325 1.920113
vt 0.625000 0.500000
vt 0.875000 0.500000
vt 0.875000 0.750000
vt 0.625000 0.750000
vt 0.375000 0.750000
vt 0.625000 1.000000
vt 0.375000 1.000000
vt 0.375000 0.000000
vt 0.625000 0.000000
vt 0.625000 0.250000
vt 0.375000 0.250000
vt 0.125000 0.500000
vt 0.375000 0.500000
vt 0.125000 0.750000
vt 0.375000 0.000000
vt 0.625000 0.000000
vt 0.625000 0.250000
vt 0.375000 0.250000
vt 0.625000 0.500000
vt 0.375000 0.500000
vt 0.625000 0.750000
vt 0.375000 0.750000
vt 0.625000 1.000000
vt 0.375000 1.000000
vt 0.125000 0.500000
vt 0.125000 0.750000
vt 0.875000 0.500000
vt 0.875000 0.750000
vt 0.250000 0.490000
vt 0.250000 0.250000
vt 0.296822 0.485388
vt 0.341844 0.471731
vt 0.383337 0.449553
vt 0.419706 0.419706
vt 0.449553 0.383337
vt 0.471731 0.341844
vt 0.485388 0.296822
vt 0.490000 0.250000
vt 0.485388 0.203178
vt 0.471731 0.158156
vt 0.449553 0.116663
vt 0.419706 0.080294
vt 0.383337 0.050447
vt 0.341844 0.028269
vt 0.296822 0.014612
vt 0.250000 0.010000
vt 0.203178 0.014612
vt 0.158156 0.028269
vt 0.116663 0.050447
vt 0.080294 0.080294
vt 0.050447 0.116663
vt 0.028269 0.158156
vt 0.014612 0.203179
vt 0.010000 0.250000
vt 0.014612 0.296822
vt 0.028269 0.341844
vt 0.050447 0.383337
vt 0.080295 0.419706
vt 0.116663 0.449553
vt 0.158156 0.471731
vt 0.203179 0.485389
vt 0.750000 0.490000
vt 0.796822 0.485388
vt 0.841844 0.471731
vt 0.883337 0.449553
vt 0.919706 0.419706
vt 0.949553 0.383337
vt 0.971731 0.341844
vt 0.985389 0.296822
vt 0.990000 0.250000
vt 0.985389 0.203178
vt 0.971731 0.158156
vt 0.949553 0.116663
vt 0.919706 0.080294
vt 0.883337 0.050447
vt 0.841844 0.028269
vt 0.796822 0.014612
vt 0.750000 0.010000
vt 0.703178 0.014612
vt 0.658156 0.028269
vt 0.616663 0.050447
vt 0.580294 0.080294
vt 0.550447 0.116663
vt 0.528269 0.158156
vt 0.514611 0.203179
vt 0.510000 0.250000
vt 0.514612 0.296822
vt 0.528269 0.341844
vt 0.550447 0.383337
vt 0.580295 0.419706
vt 0.616663 0.449553
vt 0.658156 0.471731
vt 0.703179 0.485389
vt 0.449494 0.824494
vt 0.550506 0.824494
vt 0.550506 0.925506
vt 0.449494 0.925506
vt 0.449494 0.574494
vt 0.550506 0.574494
vt 0.550506 0.675506
vt 0.449494 0.675506
vt 0.699494 0.574494
vt 0.800506 0.574494
vt 0.800506 0.675506
vt 0.699494 0.675506
vt 0.449494 0.074494
vt 0.550506 0.074494
vt 0.550506 0.175506
vt 0.449494 0.175506
vt 0.449494 0.324494
vt 0.550506 0.324494
vt 0.550506 0.425506
vt 0.449494 0.425506
vt 0.199494 0.675506
vt 0.199494 0.750000
vt 0.125000 0.675506
vt 0.625000 0.925506
vt 0.550506 1.000000
vt 0.199494 0.574494
vt 0.125000 0.574494
vt 0.199494 0.500000
vt 0.800506 0.500000
vt 0.875000 0.574494
vt 0.300506 0.675506
vt 0.375000 0.675506
vt 0.300506 0.750000
vt 0.699494 0.750000
vt 0.625000 0.675506
vt 0.300506 0.574494
vt 0.300506 0.500000
vt 0.375000 0.574494
vt 0.625000 0.574494
vt 0.699494 0.500000
vt 0.449494 1.000000
vt 0.875000 0.675506
vt 0.800506 0.750000
vn 0.0000 1.0000 0.0000
vn 0.0000 0.0000 1.0000
vn -1.0000 0.0000 0.0000
vn 0.0000 -1.0000 0.0000
vn 1.0000 0.0000 0.0000
vn 0.0000 0.0000 -1.0000
vn -0.0849 0.8198 0.5663
vn -0.2475 0.8071 0.5360
vn -0.3910 0.7850 0.4805
vn -0.5086 0.7587 0.4071
vn -0.5987 0.7330 0.3228
vn -0.6630 0.7115 0.2328
vn -0.7040 0.6962 0.1403
vn -0.7238 0.6884 0.0468
vn -0.7238 0.6884 -0.0468
vn -0.7040 0.6962 -0.1403
vn -0.6630 0.7115 -0.2328
vn -0.5987 0.7330 -0.3228
vn -0.5086 0.7587 -0.4071
vn -0.3910 0.7850 -0.4805
vn -0.2475 0.8071 -0.5360
vn -0.0849 0.8198 -0.5663
vn 0.0849 0.8198 -0.5663
vn 0.2475 0.8071 -0.5360
vn 0.3910 0.7850 -0.4805
vn 0.5086 0.7587 -0.4071
vn 0.5987 0.7330 -0.3228
vn 0.6630 0.7115 -0.2328
vn 0.7040 0.6962 -0.1403
vn 0.7238 0.6884 -0.0468
vn 0.7238 0.6884 0.0468
vn 0.7040 0.6962 0.1403
vn 0.6630 0.7115 0.2328
vn 0.5987 0.7330 0.3228
vn 0.5086 0.7587 0.4071
vn 0.3910 0.7850 0.4805
vn 0.2475 0.8071 0.5360
vn 0.0849 0.8198 0.5663
vn -0.5598 -0.5784 0.5933
vn -0.5598 0.5784 0.5933
vn -0.5598 -0.5784 -0.5933
vn -0.5598 0.5784 -0.5933
vn 0.5598 -0.5784 0.5933
vn 0.5598 0.5784 0.5933
vn 0.5598 -0.5784 -0.5933
vn 0.5598 0.5784 -0.5933
vn -0.6954 -0.7186 0.0000
vn -0.6863 0.0000 0.7273
vn -0.6954 0.7186 0.0000
vn -0.6863 0.0000 -0.7273
vn 0.0000 -0.6981 -0.7160
vn 0.0000 0.6981 -0.7160
vn 0.6863 0.0000 -0.7273
vn 0.6954 -0.7186 0.0000
vn 0.6954 0.7186 0.0000
vn 0.6863 0.0000 0.7273
vn 0.0000 -0.6981 0.7160
vn 0.0000 0.6981 0.7160
s off
f 1/1/1 5/2/1 7/3/1 3/4/1
f 4/5/2 3/4/2 7/6/2 8/7/2
f 8/8/3 7/9/3 5/10/3 6/11/3
f 6/12/4 2/13/4 4/5/4 8/14/4
f 2/13/5 1/1/5 3/4/5 4/5/5
f 6/11/6 5/10/6 1/1/6 2/13/6
f 9/15/3 10/16/3 12/17/3 11/18/3
f 11/18/6 12/17/6 16/19/6 15/20/6
f 15/20/5 16/19/5 14/21/5 13/22/5
f 13/22/2 14/21/2 10/23/2 9/24/2
f 11/25/4 15/20/4 13/22/4 9/26/4
f 16/19/1 12/27/1 10/28/1 14/21/1
f 17/29/7 40/30/7 18/31/7
f 18/31/8 40/30/8 19/32/8
f 19/32/9 40/30/9 20/33/9
f 20/33/10 40/30/10 21/34/10
f 21/34/11 40/30/11 22/35/11
f 22/35/12 40/30/12 23/36/12
f 23/36/13 40/30/13 24/37/13
f 24/37/14 40/30/14 25/38/14
f 25/38/15 40/30/15 26/39/15
f 26/39/16 40/30/16 27/40/16
f 27/40/17 40/30/17 28/41/17
f 28/41/18 40/30/18 29/42/18
f 29/42/19 40/30/19 30/43/19
f 30/43/20 40/30/20 31/44/20
f 31/44/21 40/30/21 32/45/21
f 32/45/22 40/30/22 33/46/22
f 33/46/23 40/30/23 34/47/23
f 34/47/24 40/30/24 35/48/24
f 35/48/25 40/30/25 36/49/25
f 36/49/26 40/30/26 37/50/26
f 37/50/27 40/30/27 38/51/27
f 38/51/28 40/30/28 39/52/28
f 39/52/29 40/30/29 41/53/29
f 41/53/30 40/30/30 42/54/30
f 42/54/31 40/30/31 43/55/31
f 43/55/32 40/30/32 44/56/32
f 44/56/33 40/30/33 45/57/33
f 45/57/34 40/30/34 46/58/34
f 46/58/35 40/30/35 47/59/35
f 47/59/36 40/30/36 48/60/36
f 48/60/37 40/30/37 49/61/37
f 49/61/38 40/30/38 17/29/38
f 17/62/4 18/63/4 19/64/4 20/65/4 21/66/4 22/67/4 23/68/4 24/69/4 25/70/4 26/71/4 27/72/4 28/73/4 29/74/4 30/75/4 31/76/4 32/77/4 33/78/4 34/79/4 35/80/4 36/81/4 37/82/4 38/83/4 39/84/4 41/85/4 42/86/4 43/87/4 44/88/4 45/89/4 46/90/4 47/91/4 48/92/4 49/93/4
f 64/94/2 66/95/2 53/96/2 51/97/2
f 70/98/5 72/99/5 67/100/5 63/101/5
f 71/102/1 59/103/1 54/104/1 65/105/1
f 52/106/3 55/107/3 61/108/3 57/109/3
f 58/110/6 60/111/6 73/112/6 69/113/6
f 50/114/39 51/115/39 52/116/39
f 53/96/40 54/117/40 55/118/40
f 56/119/41 57/120/41 58/121/41
f 59/103/42 60/122/42 61/123/42
f 62/124/43 63/125/43 64/126/43
f 65/105/44 66/127/44 67/128/44
f 68/129/45 69/130/45 70/131/45
f 71/102/46 72/132/46 73/133/46
f 56/119/47 50/114/47 52/116/47 57/120/47
f 51/97/48 53/96/48 55/118/48 52/134/48
f 54/104/49 59/103/49 61/123/49 55/135/49
f 60/111/50 58/110/50 57/109/50 61/108/50
f 68/129/51 56/119/51 58/121/51 69/130/51
f 59/103/52 71/102/52 73/133/52 60/122/52
f 72/99/53 70/98/53 69/113/53 73/112/53
f 62/124/54 68/129/54 70/98/54 63/101/54
f 71/102/55 65/105/55 67/100/55 72/99/55
f 66/95/56 64/94/56 63/101/56 67/100/56
f 50/114/57 62/124/57 64/126/57 51/115/57
f 65/105/58 54/104/58 53/136/58 66/127/58
f 56/119/4 68/129/4 62/124/4 50/114/4
