# Blender v2.82 (sub 7) OBJ File: 'rock2.blend'
# www.blender.org
o Rock2_Icosphere.002
v 0.361134 0.010257 0.782829
v -0.366829 -0.066573 0.604805
v -0.519006 -0.032227 -0.400728
v -0.161412 -0.136010 -0.883752
v -0.117648 0.559883 0.855010
v 0.794104 0.406505 0.409781
v 0.652935 -0.061842 0.154705
v 0.446647 -0.067047 -0.664218
v 0.801126 0.367499 -0.231296
v 0.117752 0.271207 0.994785
v -0.617506 0.274669 0.485692
v -0.516983 0.215198 -0.786831
v 0.446202 0.176923 -0.754285
v -0.098415 0.225456 -1.049410
v 0.452908 0.612082 0.681908
v 0.108848 0.931540 0.089877
v -0.187501 0.873630 0.379732
v -0.503682 0.661484 -0.333627
v 0.148436 0.619608 -0.669250
vt 0.957511 0.590445
vt 0.915578 0.573533
vt 0.933497 0.578657
vt 0.965277 0.579379
vt 0.957386 0.577666
vt 0.973159 0.573533
vt 0.966209 0.571853
vt 0.928059 0.573089
vt 0.917210 0.564380
vt 0.932127 0.569491
vt 0.974791 0.564380
vt 0.936111 0.573590
vt 0.939840 0.585839
vt 0.940974 0.580492
vt 0.949550 0.580536
vt 0.966791 0.564529
vt 0.960802 0.569624
vt 0.964664 0.552560
vt 0.953662 0.554520
vt 0.940736 0.567944
vt 0.931242 0.556453
vt 0.907083 0.552560
vn 0.0268 -0.9984 0.0503
vn 0.7825 -0.4628 0.4166
vn -0.1044 -0.6839 0.7221
vn -0.8186 -0.5648 0.1046
vn -0.6990 -0.6005 -0.3885
vn 0.6546 -0.0035 0.7560
vn -0.5648 -0.1305 0.8148
vn -0.9916 -0.1064 -0.0734
vn -0.5042 -0.2856 -0.8150
vn 0.8432 -0.1848 -0.5049
vn 0.0872 0.8372 0.5399
vn -0.6736 0.5674 0.4736
vn 0.6196 0.7838 -0.0409
vn 0.5135 0.8028 -0.3031
vn -0.1382 0.9135 -0.3826
vn -0.2639 0.7501 -0.6064
vn -0.4130 0.6549 -0.6328
vn -0.3182 0.9379 -0.1379
vn -0.7857 0.5944 0.1715
vn 0.1920 0.9060 0.3773
vn 0.5734 0.8125 0.1052
vn 0.6050 0.5224 -0.6009
vn -0.9899 0.1143 -0.0835
vn -0.5682 -0.0662 0.8202
vn 0.1955 0.5519 0.8107
vn 0.6455 0.0639 0.7611
vn 0.4555 0.4535 -0.7660
vn 0.4311 -0.3118 -0.8467
vn 0.3487 -0.4400 -0.8275
vn 0.9526 -0.3029 0.0289
vn 0.8498 -0.4830 -0.2110
vn 0.1213 -0.9923 -0.0242
vn -0.2690 -0.9631 0.0078
vn 0.0687 -0.9870 0.1452
s off
f 7/1/1 2/2/1 4/3/1
f 1/4/2 7/1/2 6/5/2
f 2/6/3 1/4/3 10/7/3
f 3/8/4 2/2/4 11/9/4
f 4/3/5 3/8/5 12/10/5
f 1/4/6 6/5/6 10/7/6
f 2/6/7 10/7/7 11/11/7
f 3/8/8 11/9/8 12/10/8
f 4/3/9 12/10/9 14/12/9
f 8/13/10 13/14/10 9/15/10
f 5/16/11 15/17/11 17/18/11
f 11/11/12 5/16/12 17/18/12
f 6/5/13 9/15/13 16/19/13
f 16/19/14 9/15/14 19/20/14
f 19/20/15 18/21/15 16/19/15
f 19/20/16 14/12/16 18/21/16
f 14/12/17 12/10/17 18/21/17
f 18/21/18 17/22/18 16/19/18
f 18/21/19 11/9/19 17/22/19
f 17/18/20 15/17/20 16/19/20
f 15/17/21 6/5/21 16/19/21
f 13/14/22 19/20/22 9/15/22
f 12/10/23 11/9/23 18/21/23
f 11/11/24 10/7/24 5/16/24
f 10/7/25 15/17/25 5/16/25
f 10/7/26 6/5/26 15/17/26
f 13/14/27 14/12/27 19/20/27
f 13/14/28 8/13/28 14/12/28
f 8/13/29 4/3/29 14/12/29
f 6/5/30 7/1/30 9/15/30
f 7/1/31 8/13/31 9/15/31
f 7/1/32 4/3/32 8/13/32
f 4/3/33 2/2/33 3/8/33
f 2/6/34 7/1/34 1/4/34
