# Blender v2.82 (sub 7) OBJ File: 'rock1.blend'
# www.blender.org
o Icosphere_Icosphere.001
v -0.514483 0.240131 1.205316
v -0.491182 -0.012412 -0.881823
v 0.515659 1.003336 -0.986294
v 0.794555 1.195143 -0.045356
v 0.006842 1.484071 0.177326
v 0.445098 0.056563 1.289576
v 1.018710 0.028877 0.223214
v -0.893082 0.018956 0.484038
v 0.609433 0.032071 -0.814379
v 1.077772 0.254254 0.771643
v 0.911114 0.480135 -0.736221
v 0.687280 0.837975 1.137578
v -1.052169 0.488952 0.353407
v -1.063311 0.771196 -0.373359
v -0.291081 0.422722 -1.269333
v -0.080748 0.800843 1.328225
v -0.753931 1.165890 0.446884
v -0.690383 1.152921 -0.724128
v -0.061026 1.180831 -1.070421
vt 0.920356 0.423897
vt 0.916990 0.422546
vt 0.922580 0.421253
vt 0.950649 0.422546
vt 0.934704 0.420943
vt 0.912972 0.423751
vt 0.914842 0.428300
vt 0.942965 0.421063
vt 0.942048 0.425572
vt 0.938522 0.428245
vt 0.924092 0.433554
vt 0.932347 0.431880
vt 0.948917 0.441755
vt 0.929522 0.430320
vt 0.936029 0.431971
vt 0.943151 0.432845
vt 0.909492 0.432845
vt 0.915258 0.441755
vt 0.918144 0.428598
vt 0.927356 0.425571
vt 0.933228 0.425244
vt 0.928684 0.421289
vt 0.908389 0.425572
vt 0.909306 0.421063
vn 0.4909 -0.8232 0.2854
vn 0.0060 -0.9996 0.0292
vn -0.1114 -0.1298 0.9853
vn -0.9296 -0.3483 -0.1210
vn 0.2734 0.9312 -0.2412
vn 0.3194 0.9055 -0.2793
vn -0.1660 0.9603 -0.2243
vn -0.3952 0.9181 -0.0316
vn -0.7359 0.6754 -0.0474
vn -0.1819 0.8516 0.4917
vn 0.0862 0.8538 0.5134
vn 0.4018 0.8659 0.2979
vn 0.8215 0.4598 -0.3372
vn 0.1992 0.1917 -0.9610
vn -0.4629 0.3537 -0.8128
vn -0.9112 0.3792 0.1612
vn -0.6598 0.3667 0.6559
vn 0.8686 0.4471 0.2138
vn 0.4072 -0.1247 -0.9048
vn 0.4073 -0.1162 -0.9059
vn 0.0722 -0.6816 -0.7281
vn -0.7341 0.1000 -0.6716
vn -0.7786 -0.1779 -0.6018
vn -0.8516 -0.4661 -0.2399
vn -0.7788 0.2646 0.5688
vn -0.8553 -0.1518 0.4955
vn 0.2341 0.1152 0.9654
vn 0.6420 -0.0502 0.7651
vn 0.9707 0.2288 -0.0730
vn 0.9940 0.0050 -0.1091
vn 0.8106 -0.4897 -0.3212
vn 0.0416 -0.9989 -0.0195
vn 0.0121 -0.9996 0.0265
vn -0.2059 -0.9000 0.3841
s off
f 10/1/1 6/2/1 7/3/1
f 6/4/2 2/5/2 7/3/2
f 1/6/3 6/2/3 16/7/3
f 8/8/4 13/9/4 14/10/4
f 4/11/5 19/12/5 5/13/5
f 4/11/6 3/14/6 19/12/6
f 19/12/7 18/15/7 5/13/7
f 18/15/8 17/16/8 5/13/8
f 18/15/9 14/10/9 17/16/9
f 17/17/10 16/7/10 5/18/10
f 16/7/11 12/19/11 5/18/11
f 5/18/12 12/19/12 4/11/12
f 11/20/13 3/14/13 4/11/13
f 15/21/14 19/12/14 3/14/14
f 15/21/15 18/15/15 19/12/15
f 13/9/16 17/16/16 14/10/16
f 1/6/17 16/7/17 17/17/17
f 10/1/18 4/11/18 12/19/18
f 11/20/19 15/21/19 3/14/19
f 11/20/20 9/22/20 15/21/20
f 9/22/21 2/5/21 15/21/21
f 15/21/22 14/10/22 18/15/22
f 15/21/23 2/5/23 14/10/23
f 2/5/24 8/8/24 14/10/24
f 13/23/25 1/6/25 17/17/25
f 13/23/26 8/24/26 1/6/26
f 16/7/27 6/2/27 12/19/27
f 6/2/28 10/1/28 12/19/28
f 10/1/29 11/20/29 4/11/29
f 10/1/30 7/3/30 11/20/30
f 7/3/31 9/22/31 11/20/31
f 7/3/32 2/5/32 9/22/32
f 2/5/33 6/4/33 8/8/33
f 6/2/34 1/6/34 8/24/34
