# Blender v2.82 (sub 7) OBJ File: 'street_lamp.blend'
# www.blender.org
o Cube
v 0.085730 3.072774 -0.088418
v 0.085730 0.015000 -0.088418
v 0.085730 3.072774 0.088418
v 0.085730 0.015000 0.088418
v -0.085730 3.072774 -0.088418
v -0.085730 0.015000 -0.088418
v -0.085730 3.072774 0.088418
v -0.085730 0.015000 0.088418
v -0.103446 3.050137 1.534591
v -0.103446 3.226823 1.534591
v -0.103446 3.050137 -0.088687
v -0.103446 3.226823 -0.088687
v 0.092020 3.050137 1.534591
v 0.092020 3.226823 1.534591
v 0.092020 3.050137 -0.088687
v 0.092020 3.226823 -0.088687
v -0.000456 2.944406 1.783502
v -0.050087 2.944406 1.776060
v -0.097811 2.944406 1.754021
v -0.141793 2.944406 1.718231
v -0.180345 2.944406 1.670066
v -0.211983 2.944406 1.611377
v -0.235492 2.944406 1.544420
v -0.249969 2.944406 1.471766
v -0.254857 2.944406 1.396209
v -0.249969 2.944406 1.320652
v -0.235492 2.944406 1.247999
v -0.211983 2.944406 1.181041
v -0.180345 2.944406 1.122352
v -0.141793 2.944406 1.074187
v -0.097811 2.944406 1.038398
v -0.050087 2.944406 1.016359
v -0.000455 2.944406 1.008917
v 0.049176 2.944406 1.016359
v 0.096900 2.944406 1.038398
v 0.140883 2.944406 1.074188
v 0.179434 2.944406 1.122352
v 0.211072 2.944406 1.181041
v 0.234581 2.944406 1.247999
v -0.000456 3.211909 1.396209
v 0.249058 2.944406 1.320652
v 0.253946 2.944406 1.396210
v 0.249058 2.944406 1.471767
v 0.234581 2.944406 1.544420
v 0.211071 2.944406 1.611378
v 0.179433 2.944406 1.670067
v 0.140882 2.944406 1.718231
v 0.096899 2.944406 1.754021
v 0.049175 2.944406 1.776060
v -0.038492 2.700758 1.423921
v -0.038492 2.770934 1.492340
v -0.111003 2.770934 1.423921
v -0.038492 2.866091 1.492340
v -0.085877 3.072465 1.468632
v -0.111003 2.866091 1.423921
v -0.038492 2.700758 1.331145
v -0.111003 2.770934 1.331145
v -0.038492 2.770934 1.262725
v -0.085877 3.072465 1.286434
v -0.038492 2.866091 1.262725
v -0.111003 2.866091 1.331145
v 0.059831 2.700758 1.423921
v 0.132341 2.770934 1.423921
v 0.059831 2.770934 1.492340
v 0.107215 3.072465 1.468632
v 0.059831 2.866091 1.492340
v 0.132341 2.866091 1.423921
v 0.059831 2.700758 1.331145
v 0.059831 2.770934 1.262725
v 0.132341 2.770934 1.331145
v 0.107215 3.072465 1.286434
v 0.132341 2.866091 1.331145
v 0.059831 2.866091 1.262725
v -0.075120 3.181496 0.542047
v -0.075120 3.084766 0.633648
v -0.075120 2.639299 -0.030505
v -0.075120 2.542569 0.061097
v 0.081189 3.181496 0.542047
v 0.081189 3.084766 0.633648
v 0.081189 2.639299 -0.030505
v 0.081189 2.542569 0.061097
vt 0.915265 0.872862
vt 0.908160 0.880189
vt 0.908160 0.872862
vt 0.342464 0.941048
vt 0.336629 0.836999
vt 0.342464 0.836999
vt 0.301459 0.967421
vt 0.309345 0.831068
vt 0.301459 0.831068
vt 0.342464 0.973792
vt 0.336629 0.967775
vt 0.336629 0.973792
vt 0.309345 0.967421
vt 0.301459 0.831068
vt 0.309345 0.831068
vt 0.336629 0.941048
vt 0.342464 0.836999
vt 0.336629 0.836999
vt 0.233995 0.948584
vt 0.309357 0.966411
vt 0.232037 0.943503
vt 0.336026 0.946290
vt 0.342678 0.940277
vt 0.336026 0.940277
vt 0.309357 0.974290
vt 0.233995 0.940705
vt 0.309357 0.966411
vt 0.342678 0.946290
vt 0.336026 0.940277
vt 0.342678 0.940277
vt 0.342678 0.973801
vt 0.336026 0.918565
vt 0.336026 0.973801
vt 0.336026 0.973801
vt 0.342678 0.918565
vt 0.342678 0.973801
vt 0.911732 0.950427
vt 0.911732 0.934379
vt 0.913788 0.950119
vt 0.915766 0.949206
vt 0.917588 0.947723
vt 0.919186 0.945727
vt 0.920496 0.943295
vt 0.921471 0.940521
vt 0.929054 0.918055
vt 0.922913 0.906970
vt 0.926044 0.918055
vt 0.922913 0.918055
vt 0.919782 0.918055
vt 0.916771 0.918055
vt 0.921471 0.928238
vt 0.920496 0.925464
vt 0.919186 0.923032
vt 0.917588 0.921036
vt 0.915766 0.919553
vt 0.913788 0.918640
vt 0.911732 0.918331
vt 0.909675 0.918640
vt 0.907697 0.919553
vt 0.905875 0.921036
vt 0.904278 0.923032
vt 0.902967 0.925464
vt 0.901992 0.928238
vt 0.916771 0.918055
vt 0.919782 0.918055
vt 0.922913 0.918055
vt 0.926044 0.918055
vt 0.929054 0.918055
vt 0.901992 0.940521
vt 0.902967 0.943295
vt 0.904278 0.945727
vt 0.905875 0.947723
vt 0.907697 0.949206
vt 0.909675 0.950119
vt 0.935932 0.126256
vt 0.899243 0.090748
vt 0.935932 0.090748
vt 0.885060 0.126256
vt 0.850440 0.090748
vt 0.885060 0.090748
vt 0.915271 0.929831
vt 0.907270 0.937380
vt 0.907270 0.929831
vt 0.850440 0.126256
vt 0.885060 0.090748
vt 0.850440 0.090748
vt 0.899243 0.126256
vt 0.935932 0.090748
vt 0.899243 0.090748
vt 0.899243 0.064562
vt 0.872185 0.090748
vt 0.899243 0.126256
vt 0.899243 0.152443
vt 0.872185 0.126256
vt 0.899243 0.064562
vt 0.872185 0.090748
vt 0.899243 0.152443
vt 0.872185 0.126256
vt 0.935932 0.064562
vt 0.962989 0.090748
vt 0.935932 0.152443
vt 0.962989 0.126256
vt 0.935932 0.064562
vt 0.962989 0.090748
vt 0.935932 0.152443
vt 0.962989 0.126256
vt 0.935932 0.126256
vt 0.899243 0.039490
vt 0.872185 0.074110
vt 0.899243 0.074110
vt 0.899243 0.074110
vt 0.872185 0.039490
vt 0.899243 0.039490
vt 0.935932 0.074110
vt 0.962989 0.039490
vt 0.935932 0.039490
vt 0.935932 0.039490
vt 0.962989 0.074110
vt 0.935932 0.074110
vt 0.277146 0.967955
vt 0.306762 0.948091
vt 0.281231 0.972269
vt 0.914825 0.934705
vt 0.908348 0.930697
vt 0.914825 0.930697
vt 0.306762 0.948091
vt 0.277146 0.967955
vt 0.281231 0.972269
vt 0.908348 0.912238
vt 0.914825 0.908230
vt 0.908348 0.908230
vt 0.342309 0.971821
vt 0.336990 0.952339
vt 0.336990 0.971821
vt 0.336990 0.968704
vt 0.342309 0.949222
vt 0.342309 0.968704
vt 0.915265 0.880189
vt 0.336629 0.941048
vt 0.309345 0.967421
vt 0.342464 0.967775
vt 0.301459 0.967421
vt 0.342464 0.941048
vt 0.309357 0.974290
vt 0.342678 0.946290
vt 0.232037 0.951381
vt 0.336026 0.946290
vt 0.342678 0.918565
vt 0.336026 0.918565
vt 0.922071 0.937510
vt 0.922273 0.934379
vt 0.901190 0.934379
vt 0.922071 0.931249
vt 0.901393 0.931249
vt 0.901393 0.937510
vt 0.850440 0.126256
vt 0.915271 0.937380
vt 0.885060 0.126256
vt 0.872185 0.039490
vt 0.872185 0.074110
vt 0.962989 0.074110
vt 0.962989 0.039490
vt 0.302678 0.943778
vt 0.908348 0.934705
vt 0.302678 0.943778
vt 0.914825 0.912238
vt 0.342309 0.952339
vt 0.336990 0.949222
vn 0.0000 1.0000 0.0000
vn 0.0000 0.0000 1.0000
vn -1.0000 0.0000 0.0000
vn 0.0000 -1.0000 0.0000
vn 1.0000 0.0000 0.0000
vn 0.0000 0.0000 -1.0000
vn -0.0849 0.8198 0.5663
vn -0.2475 0.8071 0.5360
vn -0.3910 0.7850 0.4805
vn -0.5086 0.7587 0.4071
vn -0.5987 0.7330 0.3228
vn -0.6630 0.7115 0.2328
vn -0.7040 0.6962 0.1403
vn -0.7238 0.6884 0.0468
vn -0.7238 0.6884 -0.0468
vn -0.7040 0.6962 -0.1403
vn -0.6630 0.7115 -0.2328
vn -0.5987 0.7330 -0.3228
vn -0.5086 0.7587 -0.4071
vn -0.3910 0.7850 -0.4805
vn -0.2475 0.8071 -0.5360
vn -0.0849 0.8198 -0.5663
vn 0.0849 0.8198 -0.5663
vn 0.2475 0.8071 -0.5360
vn 0.3910 0.7850 -0.4805
vn 0.5086 0.7587 -0.4071
vn 0.5987 0.7330 -0.3228
vn 0.6630 0.7115 -0.2328
vn 0.7040 0.6962 -0.1403
vn 0.7238 0.6884 -0.0468
vn 0.7238 0.6884 0.0468
vn 0.7040 0.6962 0.1403
vn 0.6630 0.7115 0.2328
vn 0.5987 0.7330 0.3228
vn 0.5086 0.7587 0.4071
vn 0.3910 0.7850 0.4805
vn 0.2475 0.8071 0.5360
vn 0.0849 0.8198 0.5663
vn -0.5598 -0.5784 0.5933
vn -0.6844 -0.0738 0.7253
vn -0.5598 -0.5784 -0.5933
vn -0.6844 -0.0738 -0.7253
vn 0.5598 -0.5784 0.5933
vn 0.6844 -0.0738 0.7253
vn 0.5598 -0.5784 -0.5933
vn 0.6844 -0.0738 -0.7253
vn -0.6954 -0.7186 0.0000
vn -0.6863 0.0000 0.7273
vn -0.9927 0.1209 0.0000
vn -0.6863 0.0000 -0.7273
vn 0.0000 -0.6981 -0.7160
vn 0.0000 0.1141 -0.9935
vn 0.6863 0.0000 -0.7273
vn 0.6954 -0.7186 0.0000
vn 0.9927 0.1209 0.0000
vn 0.6863 0.0000 0.7273
vn 0.0000 -0.6981 0.7160
vn 0.0000 0.1141 0.9935
vn 0.0000 0.6876 0.7261
vn 0.0000 -0.6876 -0.7261
vn 0.0000 -0.7261 0.6876
vn 0.0000 0.7261 -0.6876
s off
f 5/1/1 3/2/1 1/3/1
f 3/4/2 8/5/2 4/6/2
f 7/7/3 6/8/3 8/9/3
f 2/10/4 8/11/4 6/12/4
f 1/13/5 4/14/5 2/15/5
f 5/16/6 2/17/6 6/18/6
f 10/19/3 11/20/3 9/21/3
f 12/22/6 15/23/6 11/24/6
f 16/25/5 13/26/5 15/27/5
f 14/28/2 9/29/2 13/30/2
f 15/31/4 9/32/4 11/33/4
f 12/34/1 14/35/1 16/36/1
f 17/37/7 40/38/7 18/39/7
f 18/39/8 40/38/8 19/40/8
f 19/40/9 40/38/9 20/41/9
f 20/41/10 40/38/10 21/42/10
f 21/42/11 40/38/11 22/43/11
f 22/43/12 40/38/12 23/44/12
f 23/45/13 40/46/13 24/47/13
f 24/47/14 40/46/14 25/48/14
f 25/48/15 40/46/15 26/49/15
f 26/49/16 40/46/16 27/50/16
f 27/51/17 40/38/17 28/52/17
f 28/52/18 40/38/18 29/53/18
f 29/53/19 40/38/19 30/54/19
f 30/54/20 40/38/20 31/55/20
f 31/55/21 40/38/21 32/56/21
f 32/56/22 40/38/22 33/57/22
f 33/57/23 40/38/23 34/58/23
f 34/58/24 40/38/24 35/59/24
f 35/59/25 40/38/25 36/60/25
f 36/60/26 40/38/26 37/61/26
f 37/61/27 40/38/27 38/62/27
f 38/62/28 40/38/28 39/63/28
f 39/64/29 40/46/29 41/65/29
f 41/65/30 40/46/30 42/66/30
f 42/66/31 40/46/31 43/67/31
f 43/67/32 40/46/32 44/68/32
f 44/69/33 40/38/33 45/70/33
f 45/70/34 40/38/34 46/71/34
f 46/71/35 40/38/35 47/72/35
f 47/72/36 40/38/36 48/73/36
f 48/73/37 40/38/37 49/74/37
f 49/74/38 40/38/38 17/37/38
f 47/72/4 48/73/4 20/41/4
f 66/75/2 51/76/2 64/77/2
f 72/78/5 63/79/5 70/80/5
f 59/81/1 65/82/1 71/83/1
f 55/84/3 57/85/3 52/86/3
f 60/87/6 69/88/6 58/89/6
f 50/90/39 51/76/39 52/91/39
f 53/92/40 54/93/40 55/94/40
f 56/95/41 57/96/41 58/89/41
f 59/97/42 60/87/42 61/98/42
f 62/99/43 63/100/43 64/77/43
f 65/101/44 66/75/44 67/102/44
f 68/103/45 69/88/45 70/104/45
f 71/105/46 72/106/46 73/107/46
f 50/108/47 57/109/47 56/110/47
f 53/92/48 52/91/48 51/76/48
f 59/111/49 55/112/49 54/113/49
f 58/89/50 61/98/50 60/87/50
f 56/95/51 69/88/51 68/103/51
f 71/105/52 60/87/52 59/97/52
f 70/104/53 73/107/53 72/106/53
f 68/114/54 63/115/54 62/116/54
f 65/117/55 72/118/55 71/119/55
f 64/77/56 67/102/56 66/75/56
f 62/99/57 51/76/57 50/90/57
f 54/93/58 66/75/58 65/101/58
f 68/114/4 50/108/4 56/110/4
f 75/120/5 76/121/5 74/122/5
f 77/123/59 80/124/59 76/125/59
f 80/126/3 79/127/3 78/128/3
f 79/129/60 74/130/60 78/131/60
f 80/132/61 74/133/61 76/134/61
f 77/135/62 79/136/62 81/137/62
f 5/1/1 7/138/1 3/2/1
f 3/4/2 7/139/2 8/5/2
f 7/7/3 5/140/3 6/8/3
f 2/10/4 4/141/4 8/11/4
f 1/13/5 3/142/5 4/14/5
f 5/16/6 1/143/6 2/17/6
f 10/19/3 12/144/3 11/20/3
f 12/22/6 16/145/6 15/23/6
f 16/25/5 14/146/5 13/26/5
f 14/28/2 10/147/2 9/29/2
f 15/31/4 13/148/4 9/32/4
f 12/34/1 10/149/1 14/35/1
f 49/74/4 17/37/4 18/39/4
f 18/39/4 19/40/4 49/74/4
f 19/40/4 20/41/4 48/73/4
f 49/74/4 19/40/4 48/73/4
f 20/41/4 21/42/4 46/71/4
f 21/42/4 22/43/4 45/70/4
f 22/43/4 23/44/4 45/70/4
f 23/44/4 24/150/4 44/69/4
f 45/70/4 23/44/4 44/69/4
f 24/150/4 25/151/4 42/152/4
f 25/151/4 26/153/4 41/154/4
f 26/153/4 27/51/4 41/154/4
f 27/51/4 28/52/4 39/63/4
f 41/154/4 27/51/4 39/63/4
f 28/52/4 29/53/4 37/61/4
f 29/53/4 30/54/4 36/60/4
f 30/54/4 31/55/4 36/60/4
f 31/55/4 32/56/4 35/59/4
f 36/60/4 31/55/4 35/59/4
f 32/56/4 33/57/4 34/58/4
f 34/58/4 35/59/4 32/56/4
f 36/60/4 37/61/4 29/53/4
f 37/61/4 38/62/4 28/52/4
f 38/62/4 39/63/4 28/52/4
f 41/154/4 42/152/4 25/151/4
f 42/152/4 43/155/4 24/150/4
f 43/155/4 44/69/4 24/150/4
f 45/70/4 46/71/4 21/42/4
f 46/71/4 47/72/4 20/41/4
f 66/75/2 53/92/2 51/76/2
f 72/78/5 67/156/5 63/79/5
f 59/81/1 54/157/1 65/82/1
f 55/84/3 61/158/3 57/85/3
f 60/87/6 73/107/6 69/88/6
f 50/108/47 52/159/47 57/109/47
f 53/92/48 55/94/48 52/91/48
f 59/111/49 61/160/49 55/112/49
f 58/89/50 57/96/50 61/98/50
f 56/95/51 58/89/51 69/88/51
f 71/105/52 73/107/52 60/87/52
f 70/104/53 69/88/53 73/107/53
f 68/114/54 70/161/54 63/115/54
f 65/117/55 67/162/55 72/118/55
f 64/77/56 63/100/56 67/102/56
f 62/99/57 64/77/57 51/76/57
f 54/93/58 53/92/58 66/75/58
f 68/114/4 62/116/4 50/108/4
f 75/120/5 77/163/5 76/121/5
f 77/123/59 81/164/59 80/124/59
f 80/126/3 81/165/3 79/127/3
f 79/129/60 75/166/60 74/130/60
f 80/132/61 78/167/61 74/133/61
f 77/135/62 75/168/62 79/136/62
